<?xml version="1.0" encoding="UTF-8"?>
<svg width="256" height="256" viewBox="0 0 256 256" xmlns="http://www.w3.org/2000/svg">
  <!-- 背景圆形渐变 -->
  <defs>
    <linearGradient id="bgGradient" x1="0%" y1="0%" x2="100%" y2="100%">
      <stop offset="0%" style="stop-color:#667eea;stop-opacity:1" />
      <stop offset="100%" style="stop-color:#764ba2;stop-opacity:1" />
    </linearGradient>
  </defs>
  
  <!-- 背景 -->
  <circle cx="128" cy="128" r="120" fill="url(#bgGradient)"/>
  
  <!-- 电影胶片框架 -->
  <rect x="60" y="80" width="136" height="96" rx="8" fill="#fff" opacity="0.95"/>
  
  <!-- 胶片孔 - 左侧 -->
  <rect x="68" y="88" width="12" height="16" rx="2" fill="#667eea"/>
  <rect x="68" y="120" width="12" height="16" rx="2" fill="#667eea"/>
  <rect x="68" y="152" width="12" height="16" rx="2" fill="#667eea"/>
  
  <!-- 胶片孔 - 右侧 -->
  <rect x="176" y="88" width="12" height="16" rx="2" fill="#667eea"/>
  <rect x="176" y="120" width="12" height="16" rx="2" fill="#667eea"/>
  <rect x="176" y="152" width="12" height="16" rx="2" fill="#667eea"/>
  
  <!-- 文件夹图标 -->
  <path d="M 95 110 L 95 150 L 161 150 L 161 118 L 145 110 Z" fill="#fbbf24" stroke="#f59e0b" stroke-width="2"/>
  <path d="M 95 110 L 115 110 L 125 102 L 145 102 L 145 110 Z" fill="#fbbf24" stroke="#f59e0b" stroke-width="2"/>
  
  <!-- 分类箭头 -->
  <path d="M 120 125 L 136 125 L 128 135 Z" fill="#667eea"/>
</svg>
